<svg xmlns="http://www.w3.org/2000/svg" viewBox="0 0 1669.97 287.53"><defs><style>.cls-1{fill:#fff;}</style></defs><g id="Layer_2" data-name="Layer 2"><g id="Layer_1-2" data-name="Layer 1"><polygon class="cls-1" points="498.42 78.11 319.92 255.33 194 129.41 214.64 108.78 319.66 213.81 319.81 213.66 319.95 213.81 457.36 76.4 424.96 76.4 358 143.37 214.63 0 214.5 0.13 214.38 0 0 214.42 32.4 214.42 214.5 32.27 341.8 159.57 319.81 181.55 230.84 92.58 230.84 92.57 214.65 76.37 214.64 76.38 214.63 76.37 198.43 92.57 198.44 92.58 77.21 213.81 109.61 213.81 177.8 145.61 319.72 287.53 319.85 287.4 319.97 287.53 530.82 78.11 498.42 78.11"/><path class="cls-1" d="M582.82,50.47H619l91.3,124.41V50.47h42.86V248.92H717l-91.3-125.81V248.92H582.82Z"/><path class="cls-1" d="M911.63,50.47V87.76h-87.4v42.59H896v37.3H824.23v43.69H915v37.3H781.37V50.47Z"/><path class="cls-1" d="M936.26,50.47h153.09V88h-55.11V248.92H991.37V88H936.26Z"/><path class="cls-1" d="M1203.74,107c-8.62-14.2-20.31-21.15-34.51-21.15s-25.61,7-25.61,19.2c0,13.08,17.26,18.65,38.14,27.55,32.28,13.92,57.33,26.17,57.33,61.24,0,31.17-26.72,58.73-71.25,58.73-30.06,0-57.9-14.2-72.65-40.08l30.9-24.77c8.63,14.75,23.38,25.88,42,25.88,16.7,0,28.11-7.51,28.11-18.37,0-15-15.59-18.65-43.14-30.62-27.56-12.52-52-24.49-52-58.45,0-34.23,29.78-59,68.75-59,27.83,0,52,12.8,65.41,36.18Z"/><path class="cls-1" d="M1263.31,151.22c0-57.61,44-101.31,99.36-101.31,33.4,0,58.45,14.47,76,34.51L1425,98.34c-14.2-17.81-35.07-29.5-61.79-29.5-45.65,0-80.16,35.62-80.16,82.1,0,46.77,34.51,82.39,80.16,82.39,26.72,0,49.26-11.13,62.35-28.94V166.53H1371.3V149.28H1444v62.06h-.56l.56.28c-18.1,24.5-46.49,40.64-81.28,40.64C1307,252.26,1263.31,208.28,1263.31,151.22Z"/><path class="cls-1" d="M1670,150.94c0,57.62-44,101.32-100.48,101.32-56.23,0-100.48-43.7-100.48-101.32s44.25-101,100.48-101C1626,49.91,1670,93.33,1670,150.94Zm-181.2,0c0,46.77,35.91,82.39,80.72,82.39s80.71-35.62,80.71-82.39-35.9-82.1-80.71-82.1S1488.77,104.19,1488.77,150.94Z"/></g></g></svg>