<svg xmlns="http://www.w3.org/2000/svg" viewBox="0 0 1883.12 287.53"><defs><style>.cls-1{fill:#fff;}</style></defs><g id="Layer_2" data-name="Layer 2"><g id="Layer_1-2" data-name="Layer 1"><polygon class="cls-1" points="498.42 78.11 319.92 255.33 194 129.41 214.64 108.78 319.66 213.81 319.81 213.66 319.95 213.81 457.36 76.4 424.96 76.4 358 143.37 214.63 0 214.5 0.13 214.38 0 0 214.42 32.4 214.42 214.5 32.27 341.8 159.57 319.81 181.55 230.84 92.58 230.84 92.57 214.65 76.37 214.64 76.38 214.63 76.37 198.43 92.57 198.44 92.58 77.21 213.81 109.61 213.81 177.8 145.61 319.72 287.53 319.85 287.4 319.97 287.53 530.82 78.11 498.42 78.11"/><path class="cls-1" d="M765.5,47.24H732.81c-3.46,0-5.38,1.92-5.38,5.38v73.46l2.69,65-1.92.39L679.74,123,622.05,49.93a9.58,9.58,0,0,0-7.31-2.69H585.13c-3.46,0-5.38,1.92-5.38,5.38V251.45c0,3.46,1.92,5.39,5.38,5.39h32.69c3.46,0,5.39-1.93,5.39-5.39V177.61L620.51,113l1.93-.38,53.07,75,52.69,66.54c1.15,1.92,3.07,2.69,5.77,2.69H765.5c3.46,0,5.39-1.93,5.39-5.39V52.62C770.89,49.16,769,47.24,765.5,47.24Z"/><path class="cls-1" d="M981.25,214.92H861.65V169.54H964c3.46,0,5.38-1.93,5.38-5.39V133.38c0-3.46-1.92-5.38-5.38-5.38H861.65V88.77H978.18c3.46,0,5.38-1.92,5.38-5.38V52.62c0-3.46-1.92-5.38-5.38-5.38H822.42A5.49,5.49,0,0,0,817,52.62V251.45c0,3.46,1.92,5.39,5.38,5.39H981.25c3.47,0,5.39-1.93,5.39-5.39V220.3C986.64,216.84,984.72,214.92,981.25,214.92Z"/><path class="cls-1" d="M1197.39,47.24H1018.94c-3.46,0-5.38,1.92-5.38,5.38V84.16c0,3.46,1.92,5.38,5.38,5.38h66.92V251.45c0,3.46,1.93,5.39,5.39,5.39h33.84c3.46,0,5.39-1.93,5.39-5.39V89.54h66.91c3.47,0,5.39-1.92,5.39-5.38V52.62C1202.78,49.16,1200.86,47.24,1197.39,47.24Z"/><path class="cls-1" d="M1311.62,126.85c-35-3.46-46.53-9.62-46.53-21.92,0-11.93,14.23-19.23,40.38-19.23,26.53,0,48.84,7.69,66.15,21.53,3.07,2.7,5.76,2.31,8.07-.38L1398.92,83q2.89-4-1.15-6.92c-24.62-20.38-56.15-31.92-90-31.92-50.38,0-86.91,24.23-86.91,62.3,0,43.46,34.23,58.85,85.76,63.08,38.84,3.46,53.46,10,53.46,25,0,14.23-14.62,23.85-46.92,23.85-30.38,0-50.38-7.31-71.53-23.85-2.7-2.3-5.39-1.92-7.7,1.16l-18.07,24.23c-2.31,3.07-2.31,5.77.38,7.69,27.69,23.07,57.69,32.3,96.15,32.3,52.69,0,91.92-24.22,91.92-66.14C1404.31,149.92,1365.46,131.85,1311.62,126.85Z"/><path class="cls-1" d="M1627,143.77h-63.07a4,4,0,0,0-4,4v17.29a4,4,0,0,0,4,4h42.69v39.25c-14.73,15.42-32.51,26-54.71,28.07-48.91,4.66-90.17-34.1-90.66-83.23-.48-48.56,34.28-86,82.3-86,27.69,0,51.53,11.92,67.3,32.3,2.31,2.69,4.61,3.08,7.31.77l10.77-9.23a4.82,4.82,0,0,0,.77-6.92c-21.54-26.54-50.39-40-86.15-40-61.54,0-108.46,45.38-108.46,108.07,0,61.92,46.92,107.68,108.46,107.68,24.61,0,46.53-7.3,65-24.61l2.69,16.54a5.48,5.48,0,0,0,5.77,5h10a5,5,0,0,0,5-5V148.77A5,5,0,0,0,1627,143.77Z"/><path class="cls-1" d="M1774.66,44.16c-60.76,0-108.07,45.38-108.07,108.07,0,62.3,47.31,107.68,108.07,107.68,61.54,0,108.46-45.38,108.46-107.68C1883.12,89.54,1836.2,44.16,1774.66,44.16Zm0,192.68c-48.84,0-82.3-36.92-82.3-84.61,0-48.07,33.46-85,82.3-85,49.23,0,82.69,36.92,82.69,85C1857.35,199.92,1823.89,236.84,1774.66,236.84Z"/></g></g></svg>