<svg xmlns="http://www.w3.org/2000/svg" xmlns:xlink="http://www.w3.org/1999/xlink" viewBox="0 0 530.81 287.53"><defs><style>.cls-1{fill:url(#SeksuelleOgKreative_Unge_Menn);}</style><linearGradient id="SeksuelleOgKreative_Unge_Menn" y1="143.76" x2="530.81" y2="143.76" gradientUnits="userSpaceOnUse"><stop offset="0" stop-color="#ff001c"/><stop offset="0.3" stop-color="#e92f11"/><stop offset="0.61" stop-color="#d65808"/><stop offset="0.85" stop-color="#ca7202"/><stop offset="1" stop-color="#c67b00"/></linearGradient></defs><g id="Layer_2" data-name="Layer 2"><g id="Layer_1-2" data-name="Layer 1"><polygon class="cls-1" points="498.42 78.11 319.92 255.33 194 129.41 214.64 108.78 319.66 213.81 319.81 213.66 319.95 213.81 457.36 76.4 424.96 76.4 358 143.37 214.63 0 214.5 0.13 214.38 0 0 214.42 32.4 214.42 214.5 32.27 341.8 159.57 319.81 181.55 230.84 92.58 230.84 92.57 214.65 76.37 214.64 76.38 214.63 76.37 198.43 92.57 198.44 92.58 77.21 213.81 109.61 213.81 177.8 145.61 319.72 287.53 319.85 287.4 319.97 287.53 530.82 78.11 498.42 78.11"/></g></g></svg>