<svg id="Layer_1" data-name="Layer 1" xmlns="http://www.w3.org/2000/svg" viewBox="0 0 1259.06 237.89"><path d="M0,3.87H41.91L147.64,148V3.87h49.64V233.7H155.37L49.64,88V233.7H0Z"/><path d="M380.8,3.87V47.06H279.58V96.38h83.17v43.2H279.58v50.61H384.67v43.19H229.94V3.87Z"/><path d="M409.33,3.87h177.3V47.39H522.8V233.7H473.16V47.39H409.33Z"/><path d="M719.11,69.3c-10-16.44-23.53-24.49-40-24.49s-29.65,8-29.65,22.24c0,15.15,20,21.6,44.16,31.91,37.39,16.12,66.4,30.3,66.4,70.92,0,36.1-30.94,68-82.52,68-34.81,0-67-16.44-84.13-46.41l35.78-28.69c10,17.08,27.08,30,48.67,30,19.34,0,32.56-8.7,32.56-21.27,0-17.41-18-21.6-50-35.46-31.92-14.5-60.28-28.37-60.28-67.69C600.17,28.69,634.66,0,679.79,0,712,0,740.07,14.83,755.54,41.91Z"/><path d="M788.1,120.56C788.1,53.83,839,3.22,903.17,3.22c38.69,0,67.7,16.77,88,40l-15.8,16.12c-16.44-20.63-40.62-34.17-71.56-34.17C851,25.14,811,66.4,811,120.24c0,54.15,40,95.41,92.84,95.41,30.94,0,57-12.89,72.21-33.52V138.29H913.17v-20H997.3v71.89h-.64l.64.32c-20.95,28.36-53.83,47.06-94.13,47.06C838.7,237.57,788.1,186.64,788.1,120.56Z"/><path d="M1259.06,120.24c0,66.72-50.93,117.33-116.37,117.33-65.11,0-116.37-50.61-116.37-117.33s51.26-117,116.37-117C1208.13,3.22,1259.06,53.51,1259.06,120.24Zm-209.85,0c0,54.15,41.58,95.41,93.48,95.41s93.48-41.26,93.48-95.41-41.58-95.1-93.48-95.1S1049.21,66.08,1049.21,120.24Z"/></svg>