<svg id="Layer_1" data-name="Layer 1" xmlns="http://www.w3.org/2000/svg" viewBox="0 0 614.76 333.28"><polygon points="577.24 88.62 370.51 295.84 224.68 150.01 248.58 126.12 370.21 247.75 370.38 247.89 370.55 247.75 529.68 88.62 492.16 88.62 414.61 166.18 248.57 0.14 248.42 0 248.28 0.14 0 247.75 37.52 247.75 248.43 37.51 395.85 184.94 370.38 210.4 267.34 107.36 267.35 107.35 248.59 88.59 248.58 88.58 248.57 88.59 229.81 107.35 229.82 107.36 89.42 247.75 126.94 247.75 205.92 168.78 370.28 333.13 370.43 333.28 370.57 333.13 614.75 88.62 577.24 88.62"/></svg>