<svg id="Layer_1" data-name="Layer 1" xmlns="http://www.w3.org/2000/svg" viewBox="0 0 1920 333.28"><defs><style>.cls-1{fill:#fff;}</style></defs><polygon class="cls-1" points="577.24 88.62 370.51 295.84 224.68 150.01 248.58 126.12 370.21 247.75 370.38 247.89 370.55 247.75 529.68 88.62 492.16 88.62 414.61 166.18 248.57 0.14 248.42 0 248.28 0.14 0 247.75 37.52 247.75 248.43 37.51 395.85 184.94 370.38 210.4 267.34 107.36 267.35 107.35 248.59 88.59 248.58 88.58 248.57 88.59 229.81 107.35 229.82 107.36 89.42 247.75 126.94 247.75 205.92 168.78 370.28 333.13 370.43 333.28 370.57 333.13 614.75 88.62 577.24 88.62"/><path class="cls-1" d="M660.94,51.56h41.9L808.57,195.65V51.56h49.65V281.39H816.31L710.58,135.69v145.7H660.94Z"/><path class="cls-1" d="M1041.74,51.56V94.75H940.52v49.32h83.17v43.2H940.52v50.61h105.09v43.19H890.88V51.56Z"/><path class="cls-1" d="M1070.27,51.56h177.3V95.08h-63.83V281.39H1134.1V95.08h-63.83Z"/><path class="cls-1" d="M1380.05,117c-10-16.44-23.53-24.5-40-24.5s-29.65,8.06-29.65,22.24c0,15.15,20,21.6,44.16,31.91C1392,162.77,1421,177,1421,217.57c0,36.1-30.94,68-82.52,68-34.81,0-67-16.44-84.13-46.41l35.78-28.69c10,17.08,27.07,30,48.67,30,19.34,0,32.56-8.71,32.56-21.28,0-17.41-18-21.6-50-35.46-31.92-14.5-60.28-28.36-60.28-67.69,0-39.65,34.49-68.34,79.62-68.34,32.23,0,60.27,14.83,75.75,41.91Z"/><path class="cls-1" d="M1449,168.25c0-66.73,50.94-117.34,115.08-117.34,38.68,0,67.7,16.77,88,40L1636.32,107c-16.44-20.63-40.62-34.17-71.56-34.17-52.87,0-92.84,41.27-92.84,95.1,0,54.15,40,95.41,92.84,95.41,30.94,0,57-12.89,72.2-33.52V186h-62.85V166h84.13v71.89h-.65l.65.32c-21,28.37-53.83,47.06-94.13,47.06C1499.64,285.26,1449,234.33,1449,168.25Z"/><path class="cls-1" d="M1920,167.93c0,66.72-50.93,117.33-116.37,117.33-65.11,0-116.37-50.61-116.37-117.33s51.26-117,116.37-117C1869.07,50.91,1920,101.2,1920,167.93Zm-209.85,0c0,54.15,41.58,95.41,93.48,95.41s93.48-41.26,93.48-95.41-41.58-95.1-93.48-95.1S1710.15,113.77,1710.15,167.93Z"/></svg>